<svg width="230" height="110" viewBox="0 0 230 110" xmlns="http://www.w3.org/2000/svg">
 <g>
  <rect height="77.7" width="20.2" y="15.9" x="11" fill="#61DAFB"/>
  <path d="m101.7,15.9l0,77.7l-17.6,0l-0.1,-52.5l-7,52.5l-12.6,0l-7.3,-51.4l-0.1,51.4l-17.7,0l0,-77.7l26.1,0c0.7,4.7 1.5,10.2 2.4,16.6l2.9,19.7l4.6,-36.3l26.4,0z" fill="#61DAFB"/>
  <path d="m130,29.2l0,51.2c2.9,0 4.7,-0.6 5.3,-1.8c0.7,-1.2 1,-4.4 1,-9.5l0,-30.3c0,-3.5 -0.1,-5.8 -0.3,-6.8c-0.2,-1 -0.7,-1.7 -1.5,-2.2c-0.9,-0.4 -2.4,-0.6 -4.5,-0.6m-20.2,-13.3l15.1,0c9.7,0 16.3,0.4 19.8,1.3c3.4,0.9 6,2.4 7.8,4.4c1.8,2.1 2.9,4.3 3.4,6.9c0.5,2.5 0.7,7.4 0.7,14.8l0,27.2c0,7 -0.3,11.6 -1,14c-0.7,2.4 -1.8,4.2 -3.4,5.5c-1.6,1.3 -3.6,2.3 -6,2.8c-2.4,0.5 -6,0.8 -10.8,0.8l-25.4,0l0,-77.7l-0.2,0z" fill="#61DAFB"/>
  <path d="m188.8,48.1c0,-3.3 -0.2,-5.4 -0.6,-6.4c-0.4,-1 -1.2,-1.5 -2.5,-1.5c-1.2,0 -2,0.4 -2.3,1.3c-0.4,0.9 -0.5,3.1 -0.5,6.6l0,27.4c0,3.4 0.2,5.6 0.6,6.6c0.4,1 1.2,1.4 2.4,1.4c1.2,0 2,-0.5 2.4,-1.5c0.4,-1 0.6,-3.4 0.6,-7.1l0,-26.8l-0.1,0zm-6,-32.2l0,18.5c1.6,-1.9 3.4,-3.3 5.4,-4.2c2,-0.9 4.1,-1.4 6.4,-1.4c2.7,0 5,0.4 6.9,1.2c2,0.8 3.5,2 4.5,3.5c1,1.5 1.6,3 1.9,4.4c0.2,1.4 0.3,4.5 0.3,9.2l0,28.7c0,4.7 -0.3,8.1 -0.9,10.4c-0.6,2.3 -2.1,4.3 -4.4,5.9c-2.3,1.7 -5.1,2.5 -8.2,2.5c-2.3,0 -4.4,-0.5 -6.4,-1.5c-2,-1 -3.8,-2.5 -5.4,-4.5l-1.3,4.9l-18.2,0l0,-77.6l19.4,0z" fill="#61DAFB"/>
  <path d="m215.7,24.8l0.8,0c0.9,0 1.6,-0.3 1.6,-1.1c0,-0.6 -0.4,-1.2 -1.6,-1.2c-0.3,0 -0.6,0 -0.8,0.1l0,2.2zm0,3.7l-1,0l0,-6.6c0.6,-0.1 1.1,-0.2 1.9,-0.2c1,0 1.6,0.2 2,0.5c0.4,0.3 0.6,0.7 0.6,1.4c0,0.9 -0.6,1.4 -1.3,1.6l0,0.1c0.6,0.1 1,0.6 1.1,1.6c0.2,1 0.3,1.4 0.4,1.6l-1.1,0c-0.2,-0.2 -0.3,-0.8 -0.5,-1.7c-0.2,-0.8 -0.6,-1.2 -1.4,-1.2l-0.7,0l0,2.9zm1.1,-8.4c-2.6,0 -4.7,2.2 -4.7,5c0,2.8 2.1,5 4.7,5c2.6,0 4.7,-2.2 4.7,-5c0,-2.8 -2.1,-5 -4.7,-5l0,0zm0,-1c3.2,0 5.8,2.6 5.8,5.9c0,3.3 -2.6,5.9 -5.8,5.9c-3.2,0 -5.8,-2.6 -5.8,-5.9c0,-3.3 2.6,-5.9 5.8,-5.9l0,0z" fill="#61DAFB"/>
 </g>
</svg>