<svg xmlns="http://www.w3.org/2000/svg" width="98" height="98" viewBox="0 0 97.6 97.6">
<path fill="#61DAFB" d="M97.5 18.5c-0.1-0.2-0.4-0.2-0.6-0.1 -2.9 1.3-6 2.2-9.2 2.8 3.4-2.5 5.9-6 7.1-10 0.1-0.2 0-0.4-0.2-0.5 -0.2-0.1-0.4-0.1-0.5 0 -3.8 2.2-7.9 3.8-12.2 4.7 -3.8-4-9.1-6.2-14.6-6.2 -11.2 0-20.3 9.1-20.3 20.3 0 1.4 0.1 2.7 0.4 4 -15.5-1-30-8.4-39.9-20.5 -0.1-0.1-0.3-0.2-0.4-0.2 -0.2 0-0.3 0.1-0.4 0.2 -1.8 3.1-2.8 6.6-2.8 10.2 0 6.2 2.8 12.1 7.6 15.9 -2.5-0.3-4.9-1.1-7.1-2.3 -0.1-0.1-0.3-0.1-0.5 0 -0.1 0.1-0.2 0.2-0.2 0.4l0 0.3c0 8.9 5.9 16.8 14.3 19.4 -2.2 0.4-4.5 0.3-6.8-0.1 -0.2 0-0.3 0-0.5 0.2 -0.1 0.1-0.2 0.3-0.1 0.5 2.5 7.9 9.5 13.4 17.6 14 -6.8 5-14.8 7.6-23.3 7.6 -1.6 0-3.1-0.1-4.7-0.3 -0.2 0-0.4 0.1-0.5 0.3 -0.1 0.2 0 0.5 0.2 0.6 9.2 5.9 19.8 9 30.7 9 35.6 0 56.9-28.9 56.9-56.9 0-0.8 0-1.6 0-2.3 3.8-2.8 7.1-6.3 9.8-10.2C97.7 18.9 97.7 18.7 97.5 18.5z"/>
</svg>